# File produced by Open Asset Import Library (http://www.assimp.sf.net)
# (assimp v3.1.187496374)

mtllib Pijl.obj.mtl

# 31 vertex positions
v  2.24298 1 5.64614
v  2.24298 1 16.6461
v  2.24298 0 5.64614
v  2.24298 0 16.6461
v  0.868579 1 5.64614
v  0.868579 0 5.64614
v  3.24298 1 1.14614
v  3.24298 0 1.14614
v  5.61739 1 5.64614
v  5.61739 0 5.64614
v  4.24298 1 5.64614
v  4.24298 0 5.64614
v  4.24298 1 16.6461
v  4.24298 0 16.6461
v  1.74298 1 6.14614
v  0 1 6.14614
v  1.74298 0 6.14614
v  0 0 6.14614
v  1.74298 1 17.1461
v  1.74298 0 17.1461
v  4.74298 1 17.1461
v  4.74298 0 17.1461
v  4.74298 1 6.14614
v  4.74298 0 6.14614
v  6.48596 1 6.14614
v  6.48596 0 6.14614
v  3.24298 1 0
v  3.24298 -4.33681e-16 0
v  6.48596 -4.33681e-16 6.14614
v  0 -4.33681e-16 6.14614
v  3.24298 0 0

# 0 UV coordinates

# 10 vertex normals
vn 1 0 0
vn 0 0 -1
vn 0.884433 0 0.466667
vn -0.884433 0 0.466667
vn -1 0 0
vn 0 0 1
vn 0.884433 0 -0.466667
vn -0.884433 0 -0.466667
vn 0 1 0
vn 0 -1 0

# Mesh '<STL_BINARY>' with 56 faces
g <STL_BINARY>
usemtl DefaultMaterial
f  1//1 2//1 3//1
f  3//1 2//1 4//1
f  5//2 1//2 6//2
f  6//2 1//2 3//2
f  7//3 5//3 8//3
f  8//3 5//3 6//3
f  9//4 7//4 10//4
f  10//4 7//4 8//4
f  11//2 9//2 12//2
f  12//2 9//2 10//2
f  13//5 11//5 14//5
f  14//5 11//5 12//5
f  15//6 16//6 17//6
f  17//6 16//6 18//6
f  19//5 15//5 20//5
f  20//5 15//5 17//5
f  21//6 19//6 22//6
f  22//6 19//6 20//6
f  23//1 21//1 24//1
f  24//1 21//1 22//1
f  25//6 23//6 26//6
f  26//6 23//6 24//6
f  27//7 25//7 28//7
f  28//7 25//7 29//7
f  16//8 27//8 30//8
f  30//8 27//8 28//8
f  2//2 13//2 4//2
f  4//2 13//2 14//2
f  2//9 19//9 13//9
f  1//9 15//9 2//9
f  2//9 15//9 19//9
f  13//9 19//9 21//9
f  13//9 21//9 11//9
f  11//9 21//9 23//9
f  11//9 23//9 9//9
f  9//9 23//9 25//9
f  9//9 25//9 7//9
f  7//9 25//9 27//9
f  7//9 27//9 5//9
f  5//9 27//9 16//9
f  5//9 16//9 1//9
f  1//9 16//9 15//9
f  14//10 22//10 4//10
f  12//10 24//10 14//10
f  14//10 24//10 22//10
f  4//10 22//10 20//10
f  4//10 20//10 3//10
f  3//10 20//10 17//10
f  3//10 17//10 6//10
f  6//10 17//10 18//10
f  6//10 18//10 8//10
f  8//10 18//10 31//10
f  8//10 31//10 10//10
f  10//10 31//10 26//10
f  10//10 26//10 12//10
f  12//10 26//10 24//10

