# Blender v2.78 (sub 0) OBJ File: ''
# www.blender.org
mtllib pointer-marker.mtl
o Optie3.4_Optie3.000
v -5.754777 -0.034038 0.085208
v -2.335153 -0.034038 -1.746735
v -5.754777 -0.000000 0.085208
v -2.335153 0.000000 -1.746735
v -2.335152 -0.034038 1.917150
v -2.335152 0.000001 1.917150
v -2.335152 -0.034038 0.936171
v -2.335152 -0.000000 0.936171
v 5.493709 -0.034038 0.936170
v 5.493709 0.000001 0.936170
v 5.493709 -0.034038 -0.765756
v 5.493709 0.000001 -0.765756
v -2.335152 -0.034038 -0.765756
v -2.335152 0.000000 -0.765756
v -1.994767 -0.034038 1.276556
v 5.834094 -0.034038 1.276555
v -1.994767 0.000001 1.276556
v 5.834094 0.000001 1.276555
v -1.994767 -0.034038 2.638097
v -1.994767 0.000001 2.638097
v -6.760161 -0.034038 0.085208
v -6.760161 -0.000000 0.085208
v -1.994767 -0.034038 -2.467682
v -1.994767 0.000000 -2.467682
v -1.994767 -0.034038 -1.106141
v -1.994767 0.000000 -1.106141
v 5.834094 -0.034038 -1.106141
v 5.834094 0.000001 -1.106141
vn 0.4722 0.0000 0.8815
vn 0.4722 0.0000 -0.8815
vn -1.0000 0.0000 0.0000
vn -0.0000 0.0000 -1.0000
vn 0.0000 0.0000 1.0000
vn 1.0000 0.0000 0.0000
vn -0.4722 0.0000 0.8815
vn -0.4722 0.0000 -0.8815
vn 0.0000 -1.0000 -0.0000
vn -0.0000 1.0000 0.0000
usemtl None
s 1
f 1//1 2//1 3//1
f 3//1 2//1 4//1
f 5//2 1//2 6//2
f 6//2 1//2 3//2
f 7//3 5//3 8//3
f 8//3 5//3 6//3
f 9//4 7//4 10//4
f 10//4 7//4 8//4
f 11//3 9//3 12//3
f 12//3 9//3 10//3
f 13//5 11//5 14//5
f 14//5 11//5 12//5
f 15//5 16//5 17//5
f 17//5 16//5 18//5
f 19//6 15//6 20//6
f 20//6 15//6 17//6
f 21//7 19//7 22//7
f 22//7 19//7 20//7
f 23//8 21//8 24//8
f 24//8 21//8 22//8
f 25//6 23//6 26//6
f 26//6 23//6 24//6
f 27//4 25//4 28//4
f 28//4 25//4 26//4
f 16//6 27//6 18//6
f 18//6 27//6 28//6
f 2//3 13//3 4//3
f 4//3 13//3 14//3
f 11//9 27//9 9//9
f 9//9 27//9 16//9
f 9//9 16//9 7//9
f 7//9 16//9 15//9
f 7//9 15//9 5//9
f 5//9 15//9 19//9
f 5//9 19//9 1//9
f 1//9 19//9 21//9
f 1//9 21//9 2//9
f 2//9 21//9 23//9
f 2//9 23//9 13//9
f 13//9 23//9 25//9
f 13//9 25//9 11//9
f 11//9 25//9 27//9
f 10//10 18//10 12//10
f 12//10 18//10 28//10
f 12//10 28//10 14//10
f 14//10 28//10 26//10
f 14//10 26//10 4//10
f 4//10 26//10 24//10
f 4//10 24//10 3//10
f 3//10 24//10 22//10
f 3//10 22//10 6//10
f 6//10 22//10 20//10
f 6//10 20//10 8//10
f 8//10 20//10 17//10
f 8//10 17//10 10//10
f 10//10 17//10 18//10
