<svg xmlns="http://www.w3.org/2000/svg" xmlns:xlink="http://www.w3.org/1999/xlink" version="1.1" x="0px" y="0px" viewBox="0 0 100 100" enable-background="new 0 0 100 100" xml:space="preserve">
<path fill="#ffffff" d="M55.209,50l17.803-17.803c1.416-1.416,1.416-3.713,0-5.129c-1.416-1.417-3.713-1.417-5.129,0L50.08,44.872  L32.278,27.069c-1.416-1.417-3.714-1.417-5.129,0c-1.417,1.416-1.417,3.713,0,5.129L44.951,50L27.149,67.803  c-1.417,1.416-1.417,3.713,0,5.129c0.708,0.708,1.636,1.062,2.564,1.062c0.928,0,1.856-0.354,2.564-1.062L50.08,55.13l17.803,17.802  c0.708,0.708,1.637,1.062,2.564,1.062s1.856-0.354,2.564-1.062c1.416-1.416,1.416-3.713,0-5.129L55.209,50z">
</path>
</svg>